<svg width="48" height="49" viewBox="0 0 48 49" fill="none" xmlns="http://www.w3.org/2000/svg">
<g clip-path="url(#clip0_1317_193227)">
<g filter="url(#filter0_ii_1317_193227)">
<path d="M20 2.8094C22.4752 1.38034 25.5248 1.38034 28 2.8094L40.7846 10.1906C43.2598 11.6197 44.7846 14.2607 44.7846 17.1188V31.8812C44.7846 34.7393 43.2598 37.3803 40.7846 38.8094L28 46.1906C25.5248 47.6197 22.4752 47.6197 20 46.1906L7.21539 38.8094C4.74018 37.3803 3.21539 34.7393 3.21539 31.8812V17.1188C3.21539 14.2607 4.74018 11.6197 7.21539 10.1906L20 2.8094Z" fill="#272B30"/>
</g>
<rect x="22" y="18.5" width="4" height="12" rx="2" fill="white"/>
<rect x="14" y="20.5" width="4" height="8" rx="2" fill="url(#paint0_linear_1317_193227)"/>
<rect x="30" y="20.5" width="4" height="8" rx="2" fill="url(#paint1_linear_1317_193227)"/>
</g>
<defs>
<filter id="filter0_ii_1317_193227" x="3.21582" y="0.737793" width="41.5684" height="47.5244" filterUnits="userSpaceOnUse" color-interpolation-filters="sRGB">
<feFlood flood-opacity="0" result="BackgroundImageFix"/>
<feBlend mode="normal" in="SourceGraphic" in2="BackgroundImageFix" result="shape"/>
<feColorMatrix in="SourceAlpha" type="matrix" values="0 0 0 0 0 0 0 0 0 0 0 0 0 0 0 0 0 0 127 0" result="hardAlpha"/>
<feOffset dy="-1"/>
<feGaussianBlur stdDeviation="1"/>
<feComposite in2="hardAlpha" operator="arithmetic" k2="-1" k3="1"/>
<feColorMatrix type="matrix" values="0 0 0 0 0 0 0 0 0 0 0 0 0 0 0 0 0 0 0.53 0"/>
<feBlend mode="multiply" in2="shape" result="effect1_innerShadow_1317_193227"/>
<feColorMatrix in="SourceAlpha" type="matrix" values="0 0 0 0 0 0 0 0 0 0 0 0 0 0 0 0 0 0 127 0" result="hardAlpha"/>
<feOffset dy="1"/>
<feGaussianBlur stdDeviation="0.5"/>
<feComposite in2="hardAlpha" operator="arithmetic" k2="-1" k3="1"/>
<feColorMatrix type="matrix" values="0 0 0 0 0.838444 0 0 0 0 0.838444 0 0 0 0 0.838444 0 0 0 0.25 0"/>
<feBlend mode="normal" in2="effect1_innerShadow_1317_193227" result="effect2_innerShadow_1317_193227"/>
</filter>
<linearGradient id="paint0_linear_1317_193227" x1="16" y1="20.5" x2="16" y2="28.5" gradientUnits="userSpaceOnUse">
<stop stop-color="white"/>
<stop offset="1" stop-color="#D0D0D0"/>
</linearGradient>
<linearGradient id="paint1_linear_1317_193227" x1="32" y1="20.5" x2="32" y2="28.5" gradientUnits="userSpaceOnUse">
<stop stop-color="white"/>
<stop offset="1" stop-color="#D0D0D0"/>
</linearGradient>
<clipPath id="clip0_1317_193227">
<rect width="48" height="48" fill="white" transform="translate(0 0.5)"/>
</clipPath>
</defs>
</svg>
