<svg width="131" height="131" viewBox="0 0 131 131" fill="none" xmlns="http://www.w3.org/2000/svg">
<path d="M65.5991 130.362C101.367 130.362 130.362 101.367 130.362 65.5991C130.362 29.8316 101.367 0.836304 65.5991 0.836304C29.8316 0.836304 0.836304 29.8316 0.836304 65.5991C0.836304 101.367 29.8316 130.362 65.5991 130.362Z" fill="#B9C4E1"/>
<path d="M65.6145 92.2178C79.5282 92.2178 90.8075 76.5952 90.8075 57.3238C90.8075 38.0524 79.5282 22.4298 65.6145 22.4298C51.7008 22.4298 40.4215 38.0524 40.4215 57.3238C40.4215 76.5952 51.7008 92.2178 65.6145 92.2178Z" fill="white"/>
<path d="M65.2165 89.9849C44.1285 89.9849 25.2765 95.0389 12.7385 102.978C24.4685 119.544 43.7715 130.369 65.6145 130.369C87.3035 130.369 106.488 119.697 118.242 103.329C105.708 95.1879 86.6135 89.9849 65.2165 89.9849Z" fill="white"/>
<path d="M69.4506 106.734H61.7776C56.4836 106.734 52.1526 102.403 52.1526 97.1088V75.2308C52.1526 69.9368 56.4836 65.6058 61.7776 65.6058H69.4506C74.7446 65.6058 79.0756 69.9368 79.0756 75.2308V97.1088C79.0756 102.403 74.7446 106.734 69.4506 106.734Z" fill="white"/>
<path d="M44.3996 59.3058C45.1536 64.8998 43.9116 69.7508 41.6256 70.1398C39.3396 70.5288 36.8746 66.3088 36.1196 60.7148C35.3656 55.1208 36.6076 50.2698 38.8936 49.8808C41.1796 49.4918 43.6456 53.7118 44.3996 59.3058Z" fill="white"/>
<path d="M86.8295 59.3058C86.0755 64.8998 87.3175 69.7508 89.6035 70.1398C91.8895 70.5288 94.3545 66.3088 95.1095 60.7148C95.8635 55.1208 94.6215 50.2698 92.3355 49.8808C90.0495 49.4918 87.5835 53.7118 86.8295 59.3058Z" fill="white"/>
<path d="M41.3015 55.9508C40.4545 50.3648 39.6075 44.7788 38.7595 39.1938C38.4515 37.1658 38.1545 35.0288 38.8955 33.1158C39.6355 31.2028 41.8075 29.6798 43.7285 30.3978C42.9595 26.5118 47.2585 23.6418 51.0045 22.3528C57.2815 20.1918 64.0125 19.0918 70.5955 19.9428C77.1795 20.7938 83.6075 23.7058 88.0455 28.6428C89.4505 30.2058 90.6605 31.9808 91.3295 33.9718C92.6175 37.8048 91.7975 41.9878 90.9675 45.9448C90.3075 49.0888 89.6485 52.2328 88.9885 55.3768C88.8385 56.0948 88.6695 56.8478 88.1795 57.3938C87.3985 58.2638 86.0815 58.3288 84.9125 58.3308C72.4205 58.3578 59.9275 58.3848 47.4355 58.4118C45.0865 58.4168 42.0205 57.8378 41.7105 55.5098" fill="white"/>
</svg>
