<svg width="48" height="48" viewBox="0 0 48 48" fill="none" xmlns="http://www.w3.org/2000/svg">
<g clip-path="url(#clip0_1322_205089)">
<g filter="url(#filter0_ii_1322_205089)">
<path d="M20 2.3094C22.4752 0.880339 25.5248 0.880339 28 2.3094L40.7846 9.6906C43.2598 11.1197 44.7846 13.7607 44.7846 16.6188V31.3812C44.7846 34.2393 43.2598 36.8803 40.7846 38.3094L28 45.6906C25.5248 47.1197 22.4752 47.1197 20 45.6906L7.21539 38.3094C4.74018 36.8803 3.21539 34.2393 3.21539 31.3812V16.6188C3.21539 13.7607 4.74018 11.1197 7.21539 9.6906L20 2.3094Z" fill="#83BF6E"/>
</g>
<path d="M25 27.7324C25.5978 27.3866 26 26.7403 26 26C26 24.8954 25.1046 24 24 24C22.8954 24 22 24.8954 22 26C22 26.7403 22.4022 27.3866 23 27.7324V29C23 29.5523 23.4477 30 24 30C24.5523 30 25 29.5523 25 29V27.7324Z" fill="white"/>
<path fill-rule="evenodd" clip-rule="evenodd" d="M19 20V19C19 16.2386 21.2386 14 24 14C26.7614 14 29 16.2386 29 19V20C30.6569 20 32 21.3431 32 23V31C32 32.6569 30.6569 34 29 34H19C17.3431 34 16 32.6569 16 31V23C16 21.3431 17.3431 20 19 20ZM21 19C21 17.3431 22.3431 16 24 16C25.6569 16 27 17.3431 27 19V20H21V19ZM18 23C18 22.4477 18.4477 22 19 22H29C29.5523 22 30 22.4477 30 23V31C30 31.5523 29.5523 32 29 32H19C18.4477 32 18 31.5523 18 31V23Z" fill="white"/>
</g>
<defs>
<filter id="filter0_ii_1322_205089" x="3.21582" y="0.237793" width="41.5684" height="47.5244" filterUnits="userSpaceOnUse" color-interpolation-filters="sRGB">
<feFlood flood-opacity="0" result="BackgroundImageFix"/>
<feBlend mode="normal" in="SourceGraphic" in2="BackgroundImageFix" result="shape"/>
<feColorMatrix in="SourceAlpha" type="matrix" values="0 0 0 0 0 0 0 0 0 0 0 0 0 0 0 0 0 0 127 0" result="hardAlpha"/>
<feOffset dy="-1"/>
<feGaussianBlur stdDeviation="1"/>
<feComposite in2="hardAlpha" operator="arithmetic" k2="-1" k3="1"/>
<feColorMatrix type="matrix" values="0 0 0 0 0 0 0 0 0 0 0 0 0 0 0 0 0 0 0.53 0"/>
<feBlend mode="multiply" in2="shape" result="effect1_innerShadow_1322_205089"/>
<feColorMatrix in="SourceAlpha" type="matrix" values="0 0 0 0 0 0 0 0 0 0 0 0 0 0 0 0 0 0 127 0" result="hardAlpha"/>
<feOffset dy="1"/>
<feGaussianBlur stdDeviation="0.5"/>
<feComposite in2="hardAlpha" operator="arithmetic" k2="-1" k3="1"/>
<feColorMatrix type="matrix" values="0 0 0 0 0.838444 0 0 0 0 0.838444 0 0 0 0 0.838444 0 0 0 0.25 0"/>
<feBlend mode="normal" in2="effect1_innerShadow_1322_205089" result="effect2_innerShadow_1322_205089"/>
</filter>
<clipPath id="clip0_1322_205089">
<rect width="48" height="48" fill="white"/>
</clipPath>
</defs>
</svg>
