<svg width="24" height="25" viewBox="0 0 24 25" fill="none" xmlns="http://www.w3.org/2000/svg">
<g clip-path="url(#clip0_1757_12974)">
<g clip-path="url(#clip1_1757_12974)">
<path d="M23.7449 12.77C23.7449 11.98 23.6749 11.23 23.5549 10.5H12.2549V15.01H18.7249C18.4349 16.49 17.5849 17.74 16.3249 18.59V21.59H20.1849C22.4449 19.5 23.7449 16.42 23.7449 12.77Z" fill="#4285F4"/>
<path d="M12.2549 24.5C15.4949 24.5 18.2049 23.42 20.1849 21.59L16.3249 18.59C15.2449 19.31 13.8749 19.75 12.2549 19.75C9.12492 19.75 6.47492 17.64 5.52492 14.79H1.54492V17.88C3.51492 21.8 7.56492 24.5 12.2549 24.5Z" fill="#34A853"/>
<path d="M5.52488 14.7901C5.27488 14.0701 5.14488 13.3001 5.14488 12.5001C5.14488 11.7001 5.28488 10.9301 5.52488 10.2101V7.12012H1.54488C0.724882 8.74012 0.254883 10.5601 0.254883 12.5001C0.254883 14.4401 0.724882 16.2601 1.54488 17.8801L5.52488 14.7901Z" fill="#FBBC05"/>
<path d="M12.2549 5.25C14.0249 5.25 15.6049 5.86 16.8549 7.05L20.2749 3.63C18.2049 1.69 15.4949 0.5 12.2549 0.5C7.56492 0.5 3.51492 3.2 1.54492 7.12L5.52492 10.21C6.47492 7.36 9.12492 5.25 12.2549 5.25Z" fill="#EA4335"/>
</g>
</g>
<defs>
<clipPath id="clip0_1757_12974">
<rect width="24" height="24" fill="white" transform="translate(0 0.5)"/>
</clipPath>
<clipPath id="clip1_1757_12974">
<rect width="24" height="24" fill="white" transform="translate(0 0.5)"/>
</clipPath>
</defs>
</svg>
