<svg width="48" height="48" viewBox="0 0 48 48" fill="none" xmlns="http://www.w3.org/2000/svg">
<g clip-path="url(#clip0_1326_210994)">
<g filter="url(#filter0_ii_1326_210994)">
<path d="M20 2.3094C22.4752 0.880339 25.5248 0.880339 28 2.3094L40.7846 9.6906C43.2598 11.1197 44.7846 13.7607 44.7846 16.6188V31.3812C44.7846 34.2393 43.2598 36.8803 40.7846 38.3094L28 45.6906C25.5248 47.1197 22.4752 47.1197 20 45.6906L7.21539 38.3094C4.74018 36.8803 3.21539 34.2393 3.21539 31.3812V16.6188C3.21539 13.7607 4.74018 11.1197 7.21539 9.6906L20 2.3094Z" fill="#83BF6E"/>
</g>
<path fill-rule="evenodd" clip-rule="evenodd" d="M34 24C34 29.5228 29.5228 34 24 34C18.4772 34 14 29.5228 14 24C14 18.4772 18.4772 14 24 14C29.5228 14 34 18.4772 34 24ZM32 24C32 28.4183 28.4183 32 24 32C19.5817 32 16 28.4183 16 24C16 19.5817 19.5817 16 24 16C26.3582 16 28.478 17.0203 29.9422 18.6436L23 25.5858L20.2071 22.7929C19.8166 22.4024 19.1834 22.4024 18.7929 22.7929C18.4024 23.1834 18.4024 23.8166 18.7929 24.2071L21.5858 27C22.3668 27.7811 23.6332 27.781 24.4142 27L31.1015 20.3128C31.6755 21.4162 32 22.6702 32 24Z" fill="white"/>
</g>
<defs>
<filter id="filter0_ii_1326_210994" x="3.21539" y="0.237793" width="41.5692" height="47.5247" filterUnits="userSpaceOnUse" color-interpolation-filters="sRGB">
<feFlood flood-opacity="0" result="BackgroundImageFix"/>
<feBlend mode="normal" in="SourceGraphic" in2="BackgroundImageFix" result="shape"/>
<feColorMatrix in="SourceAlpha" type="matrix" values="0 0 0 0 0 0 0 0 0 0 0 0 0 0 0 0 0 0 127 0" result="hardAlpha"/>
<feOffset dy="-1"/>
<feGaussianBlur stdDeviation="1"/>
<feComposite in2="hardAlpha" operator="arithmetic" k2="-1" k3="1"/>
<feColorMatrix type="matrix" values="0 0 0 0 0 0 0 0 0 0 0 0 0 0 0 0 0 0 0.53 0"/>
<feBlend mode="multiply" in2="shape" result="effect1_innerShadow_1326_210994"/>
<feColorMatrix in="SourceAlpha" type="matrix" values="0 0 0 0 0 0 0 0 0 0 0 0 0 0 0 0 0 0 127 0" result="hardAlpha"/>
<feOffset dy="1"/>
<feGaussianBlur stdDeviation="0.5"/>
<feComposite in2="hardAlpha" operator="arithmetic" k2="-1" k3="1"/>
<feColorMatrix type="matrix" values="0 0 0 0 0.838444 0 0 0 0 0.838444 0 0 0 0 0.838444 0 0 0 0.25 0"/>
<feBlend mode="normal" in2="effect1_innerShadow_1326_210994" result="effect2_innerShadow_1326_210994"/>
</filter>
<clipPath id="clip0_1326_210994">
<rect width="48" height="48" fill="white"/>
</clipPath>
</defs>
</svg>
